<?xml version="1.0" encoding="UTF-8" standalone="no"?>
<svg
   xmlns:dc="http://purl.org/dc/elements/1.1/"
   xmlns:cc="http://creativecommons.org/ns#"
   xmlns:rdf="http://www.w3.org/1999/02/22-rdf-syntax-ns#"
   xmlns:svg="http://www.w3.org/2000/svg"
   xmlns="http://www.w3.org/2000/svg"
   xmlns:sodipodi="http://sodipodi.sourceforge.net/DTD/sodipodi-0.dtd"
   xmlns:inkscape="http://www.inkscape.org/namespaces/inkscape"
   version="1.1"
   viewBox="0 0 265.03674 198.77708"
   stroke-miterlimit="10"
   id="svg3821"
   sodipodi:docname="git-pile intro.svg"
   inkscape:version="0.92.3 (2405546, 2018-03-11)"
   width="265.03674"
   height="198.77708"
   style="fill:none;stroke:none;stroke-linecap:square;stroke-miterlimit:10">
  <metadata
     id="metadata3827">
    <rdf:RDF>
      <cc:Work
         rdf:about="">
        <dc:format>image/svg+xml</dc:format>
        <dc:type
           rdf:resource="http://purl.org/dc/dcmitype/StillImage" />
        <dc:title></dc:title>
        <cc:license
           rdf:resource="http://creativecommons.org/licenses/by/4.0/" />
      </cc:Work>
      <cc:License
         rdf:about="http://creativecommons.org/licenses/by/4.0/">
        <cc:permits
           rdf:resource="http://creativecommons.org/ns#Reproduction" />
        <cc:permits
           rdf:resource="http://creativecommons.org/ns#Distribution" />
        <cc:requires
           rdf:resource="http://creativecommons.org/ns#Notice" />
        <cc:requires
           rdf:resource="http://creativecommons.org/ns#Attribution" />
        <cc:permits
           rdf:resource="http://creativecommons.org/ns#DerivativeWorks" />
      </cc:License>
    </rdf:RDF>
  </metadata>
  <defs
     id="defs3825" />
  <sodipodi:namedview
     pagecolor="#ffffff"
     bordercolor="#666666"
     borderopacity="1"
     objecttolerance="10"
     gridtolerance="10"
     guidetolerance="10"
     inkscape:pageopacity="0"
     inkscape:pageshadow="2"
     inkscape:window-width="3840"
     inkscape:window-height="2105"
     id="namedview3823"
     showgrid="false"
     inkscape:zoom="2.4918967"
     inkscape:cx="266.35806"
     inkscape:cy="22.20141"
     inkscape:window-x="0"
     inkscape:window-y="27"
     inkscape:window-maximized="1"
     inkscape:current-layer="svg3821"
     fit-margin-top="0"
     fit-margin-left="0"
     fit-margin-right="0"
     fit-margin-bottom="0" />
  <clipPath
     id="g4063c7b21c_0_915.0">
    <path
       d="M 0,0 H 960 V 540 H 0 Z"
       id="path3790"
       inkscape:connector-curvature="0"
       style="clip-rule:nonzero" />
  </clipPath>
  <path
     style="fill:#000000;fill-opacity:0;fill-rule:evenodd"
     inkscape:connector-curvature="0"
     id="path3795"
     d="M -172.69676,-17.78104 H 721.85435 V 69.49455 H -172.69676 Z" />
  <g
     id="g3871"
     transform="translate(-340.20835,-158.77876)">
    <path
       d="m 340.20835,220.73696 h 108.59842 v 45.79527 H 340.20835 Z"
       id="path3799"
       inkscape:connector-curvature="0"
       style="fill:#000000;fill-opacity:0;fill-rule:evenodd" />
    <path
       d="m 351.56772,235.63633 h 4.84375 q 3.40625,0 4.92187,1.03125 1.53125,1.01562 1.53125,3.21875 0,1.51562 -0.85937,2.51562 -0.84375,0.98438 -2.46875,1.28125 v 0.10938 q 3.90625,0.67187 3.90625,4.10937 0,2.29688 -1.5625,3.59375 -1.54688,1.28125 -4.34375,1.28125 h -5.96875 z m 1.98437,7.34375 h 3.28125 q 2.10938,0 3.03125,-0.65625 0.9375,-0.67188 0.9375,-2.23438 0,-1.45312 -1.03125,-2.07812 -1.03125,-0.64063 -3.28125,-0.64063 h -2.9375 z m 0,1.6875 v 6.40625 h 3.57813 q 2.07812,0 3.125,-0.79688 1.04687,-0.8125 1.04687,-2.51562 0,-1.59375 -1.07812,-2.34375 -1.0625,-0.75 -3.25,-0.75 z m 19.12891,-4.96875 q 0.85938,0 1.53125,0.14062 l -0.26562,1.79688 q -0.79688,-0.17188 -1.40625,-0.17188 -1.5625,0 -2.67188,1.26563 -1.09375,1.26562 -1.09375,3.15625 v 6.89062 h -1.95312 V 239.9332 h 1.60937 l 0.21875,2.375 h 0.0937 q 0.71875,-1.25 1.71875,-1.92187 1.01563,-0.6875 2.21875,-0.6875 z m 11.84375,13.07812 -0.39062,-1.82812 h -0.0937 q -0.96875,1.20312 -1.92188,1.64062 -0.95312,0.42188 -2.375,0.42188 -1.92187,0 -3,-0.98438 -1.07812,-0.98437 -1.07812,-2.79687 0,-3.89063 6.21875,-4.07813 l 2.17187,-0.0781 v -0.79688 q 0,-1.51562 -0.65625,-2.23437 -0.64062,-0.71875 -2.0625,-0.71875 -1.60937,0 -3.64062,0.98437 l -0.59375,-1.48437 q 0.95312,-0.51563 2.07812,-0.8125 1.125,-0.29688 2.26563,-0.29688 2.29687,0 3.40625,1.03125 1.10937,1.01563 1.10937,3.26563 v 8.76562 z m -4.40625,-1.375 q 1.82813,0 2.85938,-0.98437 1.03125,-1 1.03125,-2.79688 v -1.15625 l -1.9375,0.0781 q -2.32813,0.0781 -3.35938,0.71875 -1.01562,0.64062 -1.01562,1.98437 0,1.0625 0.64062,1.60938 0.64063,0.54687 1.78125,0.54687 z m 18.64453,1.375 v -8.3125 q 0,-1.5625 -0.71875,-2.32812 -0.71875,-0.78125 -2.23437,-0.78125 -2.01563,0 -2.95313,1.09375 -0.9375,1.07812 -0.9375,3.59375 v 6.73437 h -1.95312 V 239.9332 h 1.57812 l 0.32813,1.75 h 0.0937 q 0.59375,-0.9375 1.67187,-1.45312 1.07813,-0.53125 2.40625,-0.53125 2.3125,0 3.48438,1.125 1.17187,1.10937 1.17187,3.57812 v 8.375 z m 11.07422,0.23438 q -2.79687,0 -4.32812,-1.71875 -1.53125,-1.71875 -1.53125,-4.85938 0,-3.21875 1.54687,-4.96875 1.5625,-1.76562 4.4375,-1.76562 0.92188,0 1.84375,0.20312 0.9375,0.1875 1.45313,0.46875 l -0.59375,1.64063 q -0.64063,-0.25 -1.40625,-0.42188 -0.76563,-0.17187 -1.34375,-0.17187 -3.92188,0 -3.92188,5 0,2.35937 0.95313,3.625 0.96875,1.26562 2.84375,1.26562 1.59375,0 3.28125,-0.6875 v 1.71875 q -1.28125,0.67188 -3.23438,0.67188 z m 15.08203,-0.23438 v -8.3125 q 0,-1.5625 -0.71875,-2.32812 -0.71875,-0.78125 -2.23437,-0.78125 -2.03125,0 -2.96875,1.10937 -0.92188,1.09375 -0.92188,3.59375 v 6.71875 h -1.95312 v -18.23437 h 1.95312 v 5.51562 q 0,1 -0.0937,1.65625 h 0.10938 q 0.57812,-0.92187 1.64062,-1.45312 1.0625,-0.54688 2.42188,-0.54688 2.34375,0 3.51562,1.125 1.1875,1.125 1.1875,3.5625 v 8.375 z"
       id="path3801"
       inkscape:connector-curvature="0"
       style="fill:#000000;fill-rule:nonzero" />
    <path
       d="m 496.64667,220.73696 h 108.59842 v 45.79527 H 496.64667 Z"
       id="path3803"
       inkscape:connector-curvature="0"
       style="fill:#000000;fill-opacity:0;fill-rule:evenodd" />
    <path
       d="m 518.86542,240.63633 q 0,2.59375 -1.78125,4 -1.76563,1.40625 -5.07813,1.40625 h -2.01562 v 6.73437 h -1.98438 v -17.14062 h 4.4375 q 6.42188,0 6.42188,5 z m -8.875,3.6875 h 1.79687 q 2.65625,0 3.82813,-0.84375 1.1875,-0.85938 1.1875,-2.75 0,-1.70313 -1.10938,-2.53125 -1.10937,-0.82813 -3.46875,-0.82813 h -2.23437 z m 20.07422,8.45312 -0.39063,-1.82812 h -0.0937 q -0.96875,1.20312 -1.92187,1.64062 -0.95313,0.42188 -2.375,0.42188 -1.92188,0 -3,-0.98438 -1.07813,-0.98437 -1.07813,-2.79687 0,-3.89063 6.21875,-4.07813 l 2.17188,-0.0781 v -0.79688 q 0,-1.51562 -0.65625,-2.23437 -0.64063,-0.71875 -2.0625,-0.71875 -1.60938,0 -3.64063,0.98437 l -0.59375,-1.48437 q 0.95313,-0.51563 2.07813,-0.8125 1.125,-0.29688 2.26562,-0.29688 2.29688,0 3.40625,1.03125 1.10938,1.01563 1.10938,3.26563 v 8.76562 z m -4.40625,-1.375 q 1.82812,0 2.85937,-0.98437 1.03125,-1 1.03125,-2.79688 v -1.15625 l -1.9375,0.0781 q -2.32812,0.0781 -3.35937,0.71875 -1.01563,0.64062 -1.01563,1.98437 0,1.0625 0.64063,1.60938 0.64062,0.54687 1.78125,0.54687 z m 14.0039,0 q 0.51563,0 0.98438,-0.0781 0.48437,-0.0781 0.76562,-0.15625 v 1.48437 q -0.3125,0.15625 -0.9375,0.25 -0.60937,0.10938 -1.09375,0.10938 -3.73437,0 -3.73437,-3.92188 v -7.64062 h -1.84375 v -0.9375 l 1.84375,-0.8125 0.82812,-2.75 h 1.125 v 2.98437 h 3.71875 v 1.51563 h -3.71875 v 7.54687 q 0,1.17188 0.54688,1.79688 0.54687,0.60937 1.51562,0.60937 z m 9.45704,1.60938 q -2.79688,0 -4.32813,-1.71875 -1.53125,-1.71875 -1.53125,-4.85938 0,-3.21875 1.54688,-4.96875 1.5625,-1.76562 4.4375,-1.76562 0.92187,0 1.84375,0.20312 0.9375,0.1875 1.45312,0.46875 l -0.59375,1.64063 q -0.64062,-0.25 -1.40625,-0.42188 -0.76562,-0.17187 -1.34375,-0.17187 -3.92187,0 -3.92187,5 0,2.35937 0.95312,3.625 0.96875,1.26562 2.84375,1.26562 1.59375,0 3.28125,-0.6875 v 1.71875 q -1.28125,0.67188 -3.23437,0.67188 z m 15.08203,-0.23438 v -8.3125 q 0,-1.5625 -0.71875,-2.32812 -0.71875,-0.78125 -2.23438,-0.78125 -2.03125,0 -2.96875,1.10937 -0.92187,1.09375 -0.92187,3.59375 v 6.71875 h -1.95313 v -18.23437 h 1.95313 v 5.51562 q 0,1 -0.0937,1.65625 h 0.10937 q 0.57813,-0.92187 1.64063,-1.45312 1.0625,-0.54688 2.42187,-0.54688 2.34375,0 3.51563,1.125 1.1875,1.125 1.1875,3.5625 v 8.375 z m 11.35547,0.23438 q -2.84375,0 -4.5,-1.73438 -1.64063,-1.73437 -1.64063,-4.8125 0,-3.10937 1.53125,-4.9375 1.53125,-1.82812 4.10938,-1.82812 2.42187,0 3.82812,1.59375 1.40625,1.57812 1.40625,4.1875 v 1.21875 h -8.85937 q 0.0625,2.26562 1.14062,3.4375 1.09375,1.17187 3.0625,1.17187 2.07813,0 4.09375,-0.85937 v 1.73437 q -1.03125,0.4375 -1.95312,0.625 -0.90625,0.20313 -2.21875,0.20313 z m -0.51563,-11.6875 q -1.54687,0 -2.46875,1.01562 -0.92187,1 -1.09375,2.78125 h 6.71875 q 0,-1.84375 -0.82812,-2.8125 -0.8125,-0.98437 -2.32813,-0.98437 z m 16.83984,7.95312 q 0,1.78125 -1.34375,2.76563 -1.32812,0.96875 -3.73437,0.96875 -2.5625,0 -3.98438,-0.8125 v -1.79688 q 0.92188,0.46875 1.98438,0.73438 1.0625,0.26562 2.04687,0.26562 1.51563,0 2.32813,-0.48437 0.82812,-0.48438 0.82812,-1.48438 0,-0.75 -0.65625,-1.28125 -0.64062,-0.53125 -2.53125,-1.26562 -1.78125,-0.65625 -2.54687,-1.15625 -0.75,-0.5 -1.125,-1.125 -0.35938,-0.64063 -0.35938,-1.51563 0,-1.57812 1.26563,-2.48437 1.28125,-0.90625 3.51562,-0.90625 2.0625,0 4.04688,0.84375 l -0.6875,1.57812 q -1.9375,-0.79687 -3.5,-0.79687 -1.39063,0 -2.09375,0.4375 -0.70313,0.4375 -0.70313,1.1875 0,0.51562 0.26563,0.89062 0.26562,0.35938 0.84375,0.6875 0.59375,0.32813 2.25,0.95313 2.29687,0.82812 3.09375,1.67187 0.79687,0.84375 0.79687,2.125 z"
       id="path3805"
       inkscape:connector-curvature="0"
       style="fill:#000000;fill-rule:nonzero" />
    <path
       d="m 382.3107,228.73698 v -22.03938 0 c 0,-9.46712 7.67462,-17.14174 17.14172,-17.14174 h 140.0315 c 4.54627,0 8.90638,1.806 12.12104,5.0207 3.21472,3.2147 5.02069,7.57477 5.02069,12.12104 v 12.24409 h 4.89764 l -9.79522,9.79529 -9.79529,-9.79529 h 4.89764 V 206.6976 c 0,-4.05735 -3.28912,-7.34645 -7.3465,-7.34645 h -140.0315 v 0 c -4.05731,0 -7.34643,3.2891 -7.34643,7.34645 v 22.03938 z"
       id="path3807"
       inkscape:connector-curvature="0"
       style="fill:#434343;fill-rule:evenodd" />
    <path
       d="m 382.3107,164.39051 h 173.82678 v 33.16534 H 382.3107 Z"
       id="path3809"
       inkscape:connector-curvature="0"
       style="fill:#000000;fill-opacity:0;fill-rule:evenodd" />
    <path
       d="m 422.27878,164.16942 -0.29688,1.25 -2.46875,0.28125 q 0.48438,0.73437 0.48438,1.85937 0,2.23438 -1.375,3.5625 -1.35938,1.32813 -3.64063,1.32813 -0.64062,0 -0.98437,-0.0937 -1.625,0.625 -1.625,1.53125 0,0.48437 0.375,0.64062 0.39062,0.15625 1.125,0.25 l 1.375,0.17188 q 2.125,0.25 3.07812,1.03125 0.95313,0.76562 0.95313,2.28125 0,2.15625 -1.71875,3.32812 -1.70313,1.1875 -4.8125,1.1875 -2.26563,0 -3.54688,-0.85937 -1.29687,-0.85938 -1.29687,-2.4375 0,-1.21875 0.84375,-2.125 0.84375,-0.90625 2.73437,-1.54688 -0.92187,-0.46875 -0.92187,-1.40625 0,-0.8125 0.59375,-1.39062 0.60937,-0.57813 1.67187,-1.09375 -0.73437,-0.375 -1.20312,-1.09375 -0.46875,-0.73438 -0.46875,-1.71875 0,-2.26563 1.39062,-3.71875 1.40625,-1.45313 3.57813,-1.45313 0.92187,0 1.8125,0.23438 z m -12.48438,15.125 q 0,0.90625 0.76563,1.4375 0.76562,0.53125 2.26562,0.53125 2.125,0 3.32813,-0.75 1.20312,-0.75 1.20312,-2.10938 0,-0.71875 -0.64062,-1.14062 -0.625,-0.42188 -2.14063,-0.59375 l -1.875,-0.1875 q -1.40625,0.29687 -2.15625,1.03125 -0.75,0.75 -0.75,1.78125 z m 3.26563,-10.25 q 0,1 0.51562,1.51562 0.53125,0.51563 1.46875,0.51563 0.9375,0 1.625,-0.48438 0.6875,-0.5 1.04688,-1.35937 0.375,-0.85938 0.375,-1.85938 0,-0.96875 -0.51563,-1.46875 -0.51562,-0.5 -1.46875,-0.5 -0.92187,0 -1.60937,0.46875 -0.67188,0.46875 -1.0625,1.32813 -0.375,0.84375 -0.375,1.84375 z m 14.11719,8.20312 q -2.15625,0 -3.39063,-1.28125 -1.21875,-1.28125 -1.21875,-3.53125 0,-2.20312 0.85938,-4.21875 0.875,-2.03125 2.3125,-3.15625 1.45312,-1.125 3.1875,-1.125 1.79687,0 2.6875,0.78125 0.90625,0.78125 0.90625,2.17188 0,2.10937 -1.95313,3.3125 -1.9375,1.20312 -5.5625,1.20312 h -0.375 l -0.0469,0.9375 q 0,1.53125 0.71875,2.39063 0.71875,0.85937 2.23437,0.85937 0.73438,0 1.51563,-0.20312 0.78125,-0.21875 1.9375,-0.78125 v 1.71875 q -1.10938,0.51562 -1.95313,0.71875 -0.84375,0.20312 -1.85937,0.20312 z m 1.625,-11.64062 q -1.20313,0 -2.26563,1.10937 -1.0625,1.09375 -1.625,3.04688 h 0.14063 q 2.67187,0 4.09375,-0.6875 1.4375,-0.70313 1.4375,-2.03125 0,-0.60938 -0.4375,-1.01563 -0.42188,-0.42187 -1.34375,-0.42187 z m 12.99218,11.40625 1.73438,-8.10938 q 0.23437,-1.21875 0.23437,-1.6875 0,-0.73437 -0.42187,-1.17187 -0.40625,-0.45313 -1.32813,-0.45313 -1.04687,0 -2.03125,0.70313 -0.98437,0.70312 -1.75,2 -0.75,1.29687 -1.14062,3.15625 l -1.1875,5.5625 h -1.96875 l 2.75,-12.84375 h 1.625 l -0.25,2.375 h 0.10937 q 1.125,-1.42188 2.17188,-2.01563 1.04687,-0.59375 2.17187,-0.59375 1.5,0 2.35938,0.8125 0.85937,0.8125 0.85937,2.28125 0,0.92188 -0.26562,2.10938 l -1.6875,7.875 z m 11.69532,0.23437 q -1.14063,0 -2,-0.57812 -0.84375,-0.59375 -1.3125,-1.65625 h -0.125 l -0.0469,0.45312 q -0.0312,0.29688 -0.125,0.82813 -0.0781,0.51562 -1.34375,6.48437 h -1.9375 l 3.9375,-18.60937 h 1.625 l -0.29687,2.45312 h 0.0937 q 2.09375,-2.67187 4.35937,-2.67187 1.59375,0 2.51563,1.15625 0.9375,1.14062 0.9375,3.20312 0,2.48438 -0.8125,4.5625 -0.8125,2.0625 -2.25,3.21875 -1.42188,1.15625 -3.21875,1.15625 z m 2.17187,-11.65625 q -1.125,0 -2.29687,1.10938 -1.15625,1.10937 -1.84375,2.79687 -0.6875,1.6875 -0.6875,3.45313 0,1.29687 0.65625,1.98437 0.65625,0.6875 1.875,0.6875 1.17187,0 2.17187,-0.95312 1,-0.95313 1.60938,-2.70313 0.60937,-1.75 0.60937,-3.71875 0,-2.65625 -2.09375,-2.65625 z m 12.77344,-1.65625 q 1.07812,0 1.92187,0.57813 0.84375,0.57812 1.3125,1.67187 h 0.14063 l 0.78125,-2.01562 h 1.48437 l -2.73437,12.84375 h -1.54688 l 0.29688,-2.45313 h -0.0937 q -2.09375,2.6875 -4.42188,2.6875 -1.625,0 -2.54687,-1.15625 -0.92188,-1.17187 -0.92188,-3.1875 0,-2.4375 0.82813,-4.51562 0.82812,-2.09375 2.29687,-3.26563 1.46875,-1.1875 3.20313,-1.1875 z m -2.21875,11.6875 q 1.14062,0 2.26562,-1.07812 1.125,-1.09375 1.82813,-2.82813 0.70312,-1.75 0.70312,-3.5 0,-1.20312 -0.65625,-1.90625 -0.65625,-0.71875 -1.73437,-0.71875 -1.21875,0 -2.26563,1.01563 -1.04687,1 -1.64062,2.71875 -0.59375,1.71875 -0.59375,3.625 0,1.34375 0.54687,2.01562 0.54688,0.65625 1.54688,0.65625 z m 12.91797,0.0156 q 0.65625,0 1.6875,-0.29688 v 1.5 q -0.39063,0.17188 -0.98438,0.28125 -0.57812,0.125 -0.9375,0.125 -1.45312,0 -2.23437,-0.6875 -0.78125,-0.70312 -0.78125,-2.09375 0,-0.76562 0.20312,-1.75 l 1.5,-7.0625 h -2.01562 l 0.15625,-0.85937 2.17187,-0.90625 1.46875,-2.67188 h 1.14063 l -0.64063,2.95313 h 3.20313 l -0.29688,1.48437 h -3.20312 l -1.51563,7.07813 q -0.20312,1.01562 -0.20312,1.54687 0,0.65625 0.32812,1.01563 0.34375,0.34375 0.95313,0.34375 z m 9.09375,1.60937 q -2.28125,0 -3.53125,-1.25 -1.25,-1.26562 -1.25,-3.54687 0,-2.34375 0.85937,-4.3125 0.875,-1.98438 2.39063,-3.09375 1.53125,-1.10938 3.45312,-1.10938 1.59375,0 3.14063,0.59375 l -0.5625,1.65625 q -1.40625,-0.59375 -2.5625,-0.59375 -1.3125,0 -2.40625,0.89063 -1.07813,0.89062 -1.6875,2.5 -0.60938,1.59375 -0.60938,3.46875 0,1.5 0.76563,2.34375 0.78125,0.82812 2.15625,0.82812 0.84375,0 1.59375,-0.23437 0.75,-0.23438 1.48437,-0.5625 v 1.6875 q -1.45312,0.73437 -3.23437,0.73437 z m 13.41406,-0.23437 1.73438,-8.10938 q 0.20312,-1.10937 0.20312,-1.57812 0,-1.73438 -1.71875,-1.73438 -1.04687,0 -2.03125,0.6875 -0.98437,0.6875 -1.75,2.01563 -0.75,1.3125 -1.14062,3.17187 l -1.1875,5.54688 h -1.96875 l 3.875,-18.23438 h 1.96875 q -0.21875,0.95313 -0.40625,1.85938 -0.1875,0.90625 -0.40625,1.84375 -0.20313,0.92187 -0.4375,1.95312 -0.23438,1.01563 -0.5625,2.20313 h 0.14062 q 1.09375,-1.4375 2.15625,-2.0625 1.07813,-0.625 2.25,-0.625 1.54688,0 2.375,0.84375 0.84375,0.84375 0.84375,2.39062 0,0.73438 -0.26562,1.95313 -0.46875,2.26562 -1.70313,7.875 z m 11.07031,0.23437 q -2.15625,0 -3.39062,-1.28125 -1.21875,-1.28125 -1.21875,-3.53125 0,-2.20312 0.85937,-4.21875 0.875,-2.03125 2.3125,-3.15625 1.45313,-1.125 3.1875,-1.125 1.79688,0 2.6875,0.78125 0.90625,0.78125 0.90625,2.17188 0,2.10937 -1.95312,3.3125 -1.9375,1.20312 -5.5625,1.20312 h -0.375 l -0.0469,0.9375 q 0,1.53125 0.71875,2.39063 0.71875,0.85937 2.23438,0.85937 0.73437,0 1.51562,-0.20312 0.78125,-0.21875 1.9375,-0.78125 v 1.71875 q -1.10937,0.51562 -1.95312,0.71875 -0.84375,0.20312 -1.85938,0.20312 z m 1.625,-11.64062 q -1.20312,0 -2.26562,1.10937 -1.0625,1.09375 -1.625,3.04688 h 0.14062 q 2.67188,0 4.09375,-0.6875 1.4375,-0.70313 1.4375,-2.03125 0,-0.60938 -0.4375,-1.01563 -0.42187,-0.42187 -1.34375,-0.42187 z m 13.05469,7.76562 q 0,1.82813 -1.29687,2.85938 -1.28125,1.01562 -3.64063,1.01562 -1.98437,0 -3.57812,-0.8125 v -1.84375 q 0.82812,0.48438 1.76562,0.76563 0.95313,0.26562 1.76563,0.26562 1.46875,0 2.21875,-0.57812 0.75,-0.59375 0.75,-1.51563 0,-0.67187 -0.40625,-1.125 -0.40625,-0.45312 -1.76563,-1.25 -1.53125,-0.85937 -2.17187,-1.67187 -0.625,-0.82813 -0.625,-1.95313 0,-1.60937 1.1875,-2.59375 1.1875,-1 3.125,-1 2,0 3.85937,0.85938 l -0.625,1.60937 -0.65625,-0.29687 q -1.1875,-0.5 -2.57812,-0.5 -1.09375,0 -1.71875,0.51562 -0.625,0.5 -0.625,1.3125 0,0.65625 0.42187,1.125 0.42188,0.46875 1.71875,1.20313 1.25,0.70312 1.79688,1.21875 0.54687,0.5 0.8125,1.07812 0.26562,0.57813 0.26562,1.3125 z"
       id="path3811"
       inkscape:connector-curvature="0"
       style="fill:#000000;fill-rule:nonzero" />
    <path
       d="m 382.3107,324.39051 h 173.82678 v 33.16534 H 382.3107 Z"
       id="path3813"
       inkscape:connector-curvature="0"
       style="fill:#000000;fill-opacity:0;fill-rule:evenodd" />
    <path
       d="m 425.54832,324.16944 -0.29688,1.25 -2.46875,0.28125 q 0.48438,0.73437 0.48438,1.85937 0,2.23438 -1.375,3.5625 -1.35938,1.32813 -3.64063,1.32813 -0.64062,0 -0.98437,-0.0937 -1.625,0.625 -1.625,1.53125 0,0.48437 0.375,0.64062 0.39062,0.15625 1.125,0.25 l 1.375,0.17188 q 2.125,0.25 3.07812,1.03125 0.95313,0.76562 0.95313,2.28125 0,2.15625 -1.71875,3.32812 -1.70313,1.1875 -4.8125,1.1875 -2.26563,0 -3.54688,-0.85937 -1.29687,-0.85938 -1.29687,-2.4375 0,-1.21875 0.84375,-2.125 0.84375,-0.90625 2.73437,-1.54688 -0.92187,-0.46875 -0.92187,-1.40625 0,-0.8125 0.59375,-1.39062 0.60937,-0.57813 1.67187,-1.09375 -0.73437,-0.375 -1.20312,-1.09375 -0.46875,-0.73438 -0.46875,-1.71875 0,-2.26563 1.39062,-3.71875 1.40625,-1.45313 3.57813,-1.45313 0.92187,0 1.8125,0.23438 z m -12.48438,15.125 q 0,0.90625 0.76563,1.4375 0.76562,0.53125 2.26562,0.53125 2.125,0 3.32813,-0.75 1.20312,-0.75 1.20312,-2.10938 0,-0.71875 -0.64062,-1.14062 -0.625,-0.42188 -2.14063,-0.59375 l -1.875,-0.1875 q -1.40625,0.29687 -2.15625,1.03125 -0.75,0.75 -0.75,1.78125 z m 3.26563,-10.25 q 0,1 0.51562,1.51562 0.53125,0.51563 1.46875,0.51563 0.9375,0 1.625,-0.48438 0.6875,-0.5 1.04688,-1.35937 0.375,-0.85938 0.375,-1.85938 0,-0.96875 -0.51563,-1.46875 -0.51562,-0.5 -1.46875,-0.5 -0.92187,0 -1.60937,0.46875 -0.67188,0.46875 -1.0625,1.32813 -0.375,0.84375 -0.375,1.84375 z m 14.11719,8.20312 q -2.15625,0 -3.39063,-1.28125 -1.21875,-1.28125 -1.21875,-3.53125 0,-2.20312 0.85938,-4.21875 0.875,-2.03125 2.3125,-3.15625 1.45312,-1.125 3.1875,-1.125 1.79687,0 2.6875,0.78125 0.90625,0.78125 0.90625,2.17188 0,2.10937 -1.95313,3.3125 -1.9375,1.20312 -5.5625,1.20312 h -0.375 l -0.0469,0.9375 q 0,1.53125 0.71875,2.39063 0.71875,0.85937 2.23437,0.85937 0.73438,0 1.51563,-0.20312 0.78125,-0.21875 1.9375,-0.78125 v 1.71875 q -1.10938,0.51562 -1.95313,0.71875 -0.84375,0.20312 -1.85937,0.20312 z m 1.625,-11.64062 q -1.20313,0 -2.26563,1.10937 -1.0625,1.09375 -1.625,3.04688 h 0.14063 q 2.67187,0 4.09375,-0.6875 1.4375,-0.70313 1.4375,-2.03125 0,-0.60938 -0.4375,-1.01563 -0.42188,-0.42187 -1.34375,-0.42187 z m 12.99218,11.40625 1.73438,-8.10938 q 0.23437,-1.21875 0.23437,-1.6875 0,-0.73437 -0.42187,-1.17187 -0.40625,-0.45313 -1.32813,-0.45313 -1.04687,0 -2.03125,0.70313 -0.98437,0.70312 -1.75,2 -0.75,1.29687 -1.14062,3.15625 l -1.1875,5.5625 h -1.96875 l 2.75,-12.84375 h 1.625 l -0.25,2.375 h 0.10937 q 1.125,-1.42188 2.17188,-2.01563 1.04687,-0.59375 2.17187,-0.59375 1.5,0 2.35938,0.8125 0.85937,0.8125 0.85937,2.28125 0,0.92188 -0.26562,2.10938 l -1.6875,7.875 z m 11.69532,0.23437 q -1.14063,0 -2,-0.59375 -0.85938,-0.60937 -1.29688,-1.64062 h -0.10937 l -0.82813,2 h -1.46875 l 3.875,-18.23438 h 1.96875 q -0.59375,2.82813 -0.92187,4.34375 -0.32813,1.5 -0.89063,3.51563 h 0.10938 q 1.09375,-1.375 2.15625,-2.03125 1.0625,-0.65625 2.1875,-0.65625 1.64062,0 2.5625,1.17187 0.9375,1.15625 0.9375,3.1875 0,2.4375 -0.8125,4.53125 -0.79688,2.07813 -2.23438,3.25 -1.4375,1.15625 -3.23437,1.15625 z m 2.17187,-11.65625 q -1.125,0 -2.29687,1.10938 -1.15625,1.10937 -1.84375,2.79687 -0.6875,1.6875 -0.6875,3.45313 0,1.29687 0.65625,1.98437 0.65625,0.6875 1.875,0.6875 1.17187,0 2.17187,-0.95312 1,-0.95313 1.60938,-2.70313 0.60937,-1.75 0.60937,-3.71875 0,-2.65625 -2.09375,-2.65625 z m 14.10156,-1.65625 q 0.8125,0 1.40625,0.15625 l -0.42187,1.76563 q -0.625,-0.15625 -1.23438,-0.15625 -1.0625,0 -2,0.70312 -0.92187,0.70313 -1.625,1.95313 -0.6875,1.25 -1.01562,2.76562 l -1.26563,5.89063 h -1.96875 l 2.75,-12.84375 h 1.625 l -0.25,2.375 h 0.10938 q 0.84375,-1.10938 1.39062,-1.59375 0.5625,-0.48438 1.15625,-0.75 0.60938,-0.26563 1.34375,-0.26563 z m 8.17579,0 q 1.07812,0 1.92187,0.57813 0.84375,0.57812 1.3125,1.67187 h 0.14063 l 0.78125,-2.01562 h 1.48437 l -2.73437,12.84375 h -1.54688 l 0.29688,-2.45313 h -0.0937 q -2.09375,2.6875 -4.42188,2.6875 -1.625,0 -2.54687,-1.15625 -0.92188,-1.17187 -0.92188,-3.1875 0,-2.4375 0.82813,-4.51562 0.82812,-2.09375 2.29687,-3.26563 1.46875,-1.1875 3.20313,-1.1875 z m -2.21875,11.6875 q 1.14062,0 2.26562,-1.07812 1.125,-1.09375 1.82813,-2.82813 0.70312,-1.75 0.70312,-3.5 0,-1.20312 -0.65625,-1.90625 -0.65625,-0.71875 -1.73437,-0.71875 -1.21875,0 -2.26563,1.01563 -1.04687,1 -1.64062,2.71875 -0.59375,1.71875 -0.59375,3.625 0,1.34375 0.54687,2.01562 0.54688,0.65625 1.54688,0.65625 z m 16.83984,1.39063 1.73437,-8.10938 q 0.23438,-1.21875 0.23438,-1.6875 0,-0.73437 -0.42188,-1.17187 -0.40625,-0.45313 -1.32812,-0.45313 -1.04688,0 -2.03125,0.70313 -0.98438,0.70312 -1.75,2 -0.75,1.29687 -1.14063,3.15625 l -1.1875,5.5625 h -1.96875 l 2.75,-12.84375 h 1.625 l -0.25,2.375 h 0.10938 q 1.125,-1.42188 2.17187,-2.01563 1.04688,-0.59375 2.17188,-0.59375 1.5,0 2.35937,0.8125 0.85938,0.8125 0.85938,2.28125 0,0.92188 -0.26563,2.10938 l -1.6875,7.875 z m 11.24219,0.23437 q -2.28125,0 -3.53125,-1.25 -1.25,-1.26562 -1.25,-3.54687 0,-2.34375 0.85937,-4.3125 0.875,-1.98438 2.39063,-3.09375 1.53125,-1.10938 3.45312,-1.10938 1.59375,0 3.14063,0.59375 l -0.5625,1.65625 q -1.40625,-0.59375 -2.5625,-0.59375 -1.3125,0 -2.40625,0.89063 -1.07813,0.89062 -1.6875,2.5 -0.60938,1.59375 -0.60938,3.46875 0,1.5 0.76563,2.34375 0.78125,0.82812 2.15625,0.82812 0.84375,0 1.59375,-0.23437 0.75,-0.23438 1.48437,-0.5625 v 1.6875 q -1.45312,0.73437 -3.23437,0.73437 z m 13.41406,-0.23437 1.73437,-8.10938 q 0.20313,-1.10937 0.20313,-1.57812 0,-1.73438 -1.71875,-1.73438 -1.04688,0 -2.03125,0.6875 -0.98438,0.6875 -1.75,2.01563 -0.75,1.3125 -1.14063,3.17187 l -1.1875,5.54688 h -1.96875 l 3.875,-18.23438 h 1.96875 q -0.21875,0.95313 -0.40625,1.85938 -0.1875,0.90625 -0.40625,1.84375 -0.20312,0.92187 -0.4375,1.95312 -0.23437,1.01563 -0.5625,2.20313 h 0.14063 q 1.09375,-1.4375 2.15625,-2.0625 1.07812,-0.625 2.25,-0.625 1.54687,0 2.375,0.84375 0.84375,0.84375 0.84375,2.39062 0,0.73438 -0.26563,1.95313 -0.46875,2.26562 -1.70312,7.875 z"
       id="path3815"
       inkscape:connector-curvature="0"
       style="fill:#000000;fill-rule:nonzero" />
    <path
       d="m 556.14798,270.32752 v 22.03937 0 c 0,9.4671 -7.67462,17.14172 -17.14172,17.14172 H 398.97474 c -4.54627,0 -8.90632,-1.806 -12.12104,-5.02069 -3.21469,-3.21469 -5.02069,-7.57477 -5.02069,-12.12103 v -12.24411 h -4.89764 l 9.79529,-9.79526 9.79528,9.79526 h -4.89764 v 12.24411 c 0,4.05734 3.28912,7.34643 7.34644,7.34643 h 140.03152 v 0 c 4.05731,0 7.34643,-3.28909 7.34643,-7.34643 v -22.03937 z"
       id="path3817"
       inkscape:connector-curvature="0"
       style="fill:#b7b7b7;fill-rule:evenodd" />
  </g>
</svg>
